<svg id="Layer_1" data-name="Layer 1" xmlns="http://www.w3.org/2000/svg" viewBox="0 0 222.802 226.657">
  <defs>
    <style>
      .cls-1, .cls-2, .cls-4, .cls-6, .cls-8 {
        fill: none;
      }

      .cls-1, .cls-2, .cls-3, .cls-4, .cls-5, .cls-6, .cls-7, .cls-8 {
        stroke: #3d3e40;
        stroke-miterlimit: 10;
      }

      .cls-1, .cls-7, .cls-8 {
        stroke-width: 2px;
      }

      .cls-2, .cls-3 {
        stroke-width: 4px;
      }

      .cls-3, .cls-5, .cls-7 {
        fill: #fff;
      }

      .cls-3, .cls-8 {
        stroke-linecap: round;
      }

      .cls-5, .cls-6 {
        stroke-width: 3px;
      }

      .cls-9 {
        fill: #74bd80;
      }

      .cls-10 {
        fill: #658f6b;
      }

      .cls-11 {
        fill: #393939;
      }
    </style>
  </defs>
  <title>89e50012-7c4c-4253-8ff9-f0f74fd3b70a</title>
  <path class="cls-1" d="M104.379,105.211V45.36s1.28-1.7-.221-2.5c0,0,4.584-12.586-2.554-14.2"/>
  <g>
    <path class="cls-2" d="M94.89,91.417"/>
    <path class="cls-3" d="M130.977,147.345v47.442a3.921,3.921,0,0,1-3.921,3.921H5.921A3.921,3.921,0,0,1,2,194.786V73.652c0-2.166,1.756-3.921,5.421-3.921H28.464"/>
    <line class="cls-4" x1="66.489" y1="141.532" x2="66.489" y2="198.33"/>
    <path class="cls-4" d="M66.489,198.33"/>
    <path class="cls-4" d="M82.648,134.219"/>
    <path class="cls-4" d="M56,134.219"/>
    <line class="cls-4" x1="2.378" y1="134.219" x2="56.004" y2="134.219"/>
    <path class="cls-4" d="M77.771,112.209"/>
    <path class="cls-4" d="M62.319,139.6c-3.1,4.509-7.643,10.057-10.855,9.31"/>
    <path class="cls-4" d="M62.319,139.6"/>
    <path class="cls-4" d="M88.186,147.175"/>
  </g>
  <g>
    <path class="cls-5" d="M51.651,130.337a75.095,75.095,0,1,1,98.107,5.875,75.723,75.723,0,0,1-98.107-5.875"/>
    <path class="cls-6" d="M177.051,136.161h20.34a0,0,0,0,1,0,0v88.046a7.75,7.75,0,0,1-7.75,7.75H184.8a7.75,7.75,0,0,1-7.75-7.75V136.161A0,0,0,0,1,177.051,136.161Z" transform="translate(-73.327 151.746) rotate(-37.442)"/>
    <line class="cls-6" x1="149.758" y1="136.212" x2="158.101" y2="146.03"/>
    <line class="cls-6" x1="202.084" y1="220.197" x2="218.233" y2="207.831"/>
  </g>
  <path class="cls-7" d="M114.806,76.817H69.232s-0.8,16.041,3.559,20.536,7.119,5.817,7.119,5.817v1.763h24.217V103.17s2.759-1.322,7.119-5.817S114.806,76.817,114.806,76.817Z"/>
  <g>
    <path class="cls-7" d="M67.033,56.145h-3.5s-14.952,15.839-6.4,21.964c3.225,2.429,1.759,5.6.053,5.7H73.376c-1.706-.106-3.172-3.273.053-5.7C81.985,71.985,67.033,56.145,67.033,56.145Z"/>
    <rect class="cls-7" x="87.406" y="66.307" width="9.149" height="17.849"/>
    <rect class="cls-1" x="88.593" y="62.855" width="6.776" height="3.072"/>
    <path class="cls-8" d="M96.094,62.855H87.406s-7.059-14.96-4.048-17.26"/>
    <path class="cls-1" d="M88.591,62.855"/>
    <path class="cls-8" d="M85.53,45.595"/>
    <path class="cls-8" d="M88.591,45.595c-0.938.413,1.481,17.26,1.481,17.26"/>
    <path class="cls-1" d="M90.911,62.855"/>
    <path class="cls-8" d="M90.911,45.595"/>
    <path class="cls-1" d="M93.888,62.855"/>
    <path class="cls-8" d="M95.369,45.595"/>
    <path class="cls-8" d="M87.566,62.855h8.688s7.059-14.96,4.048-17.26"/>
    <path class="cls-8" d="M95.069,45.595c0.938,0.413-1.481,17.26-1.481,17.26"/>
  </g>
  <g>
    <path class="cls-9" d="M97.813,104.932a80.338,80.338,0,0,0-5.724-6.609,1.332,1.332,0,0,0,.145-0.61,1.364,1.364,0,0,0-.616-1.108c-0.559-.361-1.344-0.291-1.844-0.729-0.265-.232-0.411-0.579-0.684-0.8a1.384,1.384,0,0,0-.668-0.274A38.487,38.487,0,0,0,83.7,91.186c-0.009-.022-0.016-0.046-0.026-0.067a2.83,2.83,0,0,0-.7-0.846,3.158,3.158,0,0,0-1.1-.765,0.86,0.86,0,0,0-.929.185,10.625,10.625,0,0,0-4.242-1.029c-3.053,0-7.182,1.945-11.279,4.489-0.182.012-.364,0.03-0.545,0.058a3.786,3.786,0,0,0-2.317,1.171A11.847,11.847,0,0,1,61.5,95.771l-0.243.172a1.381,1.381,0,0,1-.138.069,12.589,12.589,0,0,1-1.828.215,1.692,1.692,0,0,0-1.162,2.021c-4.625,3.53-8.083,6.684-8.083,6.684H97.813Z"/>
    <path class="cls-10" d="M72.787,96.227a12.6,12.6,0,0,0,1.828-.216,1.375,1.375,0,0,0,.138-0.069L75,95.771a11.847,11.847,0,0,0,1.072-1.387,3.787,3.787,0,0,1,2.317-1.171c0.181-.028.363-0.046,0.545-0.058a49.409,49.409,0,0,1,4.446-2.478,5.546,5.546,0,0,0-.4-0.4,3.159,3.159,0,0,0-1.1-.765,0.86,0.86,0,0,0-.929.185,10.625,10.625,0,0,0-4.242-1.029c-3.053,0-7.182,1.945-11.279,4.489-0.182.012-.364,0.03-0.545,0.058a3.787,3.787,0,0,0-2.317,1.171A11.847,11.847,0,0,1,61.5,95.771l-0.243.172a1.375,1.375,0,0,1-.138.069,12.6,12.6,0,0,1-1.828.216,1.692,1.692,0,0,0-1.162,2.021c-4.625,3.53-8.083,6.684-8.083,6.684h13.5s3.459-3.154,8.083-6.684A1.692,1.692,0,0,1,72.787,96.227Z"/>
    <path class="cls-1" d="M97.813,104.932a80.338,80.338,0,0,0-5.724-6.609,1.332,1.332,0,0,0,.145-0.61,1.364,1.364,0,0,0-.616-1.108c-0.559-.361-1.344-0.291-1.844-0.729-0.265-.232-0.411-0.579-0.684-0.8a1.384,1.384,0,0,0-.668-0.274A38.487,38.487,0,0,0,83.7,91.186c-0.009-.022-0.016-0.046-0.026-0.067a2.83,2.83,0,0,0-.7-0.846,3.158,3.158,0,0,0-1.1-.765,0.86,0.86,0,0,0-.929.185,10.625,10.625,0,0,0-4.242-1.029c-3.053,0-7.182,1.945-11.279,4.489-0.182.012-.364,0.03-0.545,0.058a3.786,3.786,0,0,0-2.317,1.171A11.847,11.847,0,0,1,61.5,95.771l-0.243.172a1.381,1.381,0,0,1-.138.069,12.589,12.589,0,0,1-1.828.215,1.692,1.692,0,0,0-1.162,2.021c-4.625,3.53-8.083,6.684-8.083,6.684H97.813Z"/>
  </g>
  <g>
    <line class="cls-1" x1="126.068" y1="78.87" x2="136.068" y2="88.87"/>
    <line class="cls-1" x1="136.068" y1="78.87" x2="126.068" y2="88.87"/>
  </g>
  <path class="cls-11" d="M144.473,94.624V93.488l2.351-2.429c7.089-6.933,10.184-10.536,10.184-14.924,0-2.9-1.214-5.758-5.522-5.758a8.429,8.429,0,0,0-5.405,2.193l-0.745-1.292a9.64,9.64,0,0,1,6.5-2.546c5.287,0,7.089,4,7.089,7.011,0,5.014-3.643,9.049-10.027,15.354l-1.8,1.88v0.079h12.534v1.566H144.473Z"/>
</svg>
