<svg id="Layer_1" data-name="Layer 1" xmlns="http://www.w3.org/2000/svg" viewBox="0 0 139.5 141.268">
  <defs>
    <style>
      .cls-1, .cls-2 {
        fill: none;
        stroke-miterlimit: 10;
        stroke-width: 3px;
      }

      .cls-1 {
        stroke: #92cf5e;
      }

      .cls-2 {
        stroke: #272122;
      }

      .cls-3 {
        fill: #92cf5e;
      }
    </style>
  </defs>
  <title>e197f86d-1b5f-4538-897a-e7670ac51c93</title>
  <path class="cls-1" d="M21,91.167a9.75,9.75,0,1,1-19.5,0"/>
  <path class="cls-1" d="M40.5,91.167a9.75,9.75,0,1,1-19.5,0"/>
  <path class="cls-1" d="M60,91.167a9.75,9.75,0,1,1-19.5,0"/>
  <path class="cls-1" d="M65.873,100.115A9.752,9.752,0,0,1,60,91.167"/>
  <path class="cls-1" d="M79.5,91.167a9.711,9.711,0,0,1-2.326,6.32"/>
  <path class="cls-1" d="M99,91.167a9.75,9.75,0,1,1-19.5,0"/>
  <path class="cls-1" d="M118.5,91.167a9.75,9.75,0,1,1-19.5,0"/>
  <path class="cls-1" d="M138,91.167a9.75,9.75,0,1,1-19.5,0"/>
  <path class="cls-1" d="M30.75,100.917a9.75,9.75,0,0,1-19.5,0"/>
  <path class="cls-1" d="M50.25,100.917a9.75,9.75,0,1,1-19.5,0"/>
  <path class="cls-1" d="M65.482,108.98a9.751,9.751,0,0,1-15.232-8.064"/>
  <path class="cls-1" d="M89.25,100.917a9.758,9.758,0,0,1-12.23,9.432"/>
  <path class="cls-1" d="M108.75,100.917a9.75,9.75,0,1,1-19.5,0"/>
  <path class="cls-1" d="M128.25,100.917a9.75,9.75,0,1,1-19.5,0"/>
  <path class="cls-2" d="M77.768,117.877V42.667a6,6,0,0,0-6-6h0a6,6,0,0,0-6,6v75.211A11.768,11.768,0,1,0,77.768,117.877Z"/>
  <circle class="cls-3" cx="71.649" cy="128" r="7.167"/>
  <rect class="cls-3" x="69.965" y="74.167" width="3.368" height="48.667"/>
  <line class="cls-1" x1="34.333" y1="72" x2="34.333" y2="36.667"/>
  <line class="cls-1" x1="48.667" y1="74.167" x2="48.667" y2="61.667"/>
  <line class="cls-1" x1="90.098" y1="80" x2="90.098" y2="61.667"/>
  <line class="cls-1" x1="23.333" y1="70.833" x2="23.333" y2="56.333"/>
  <line class="cls-1" x1="56.333" y1="12.667" x2="56.333"/>
</svg>
