<svg id="Layer_1" data-name="Layer 1" xmlns="http://www.w3.org/2000/svg" viewBox="0 0 143.333 107.228">
  <defs>
    <style>
      .cls-1 {
        fill: #598945;
      }

      .cls-2 {
        fill: #92cf5e;
      }

      .cls-3, .cls-4, .cls-5 {
        fill: none;
        stroke-miterlimit: 10;
        stroke-width: 3px;
      }

      .cls-3 {
        stroke: #282828;
        stroke-linecap: round;
      }

      .cls-4 {
        stroke: #272122;
      }

      .cls-5 {
        stroke: #92cf5e;
      }
    </style>
  </defs>
  <title>4b593eea-05c5-41eb-ad5a-ab3f17bd3f32</title>
  <g>
    <path class="cls-1" d="M106.67,10.687s-8.44,4.426-13.562,7.864l-3.248,5.872s-6.221,1.084-8.646,3.214l-1.443,2.609-0.477-.87a75.959,75.959,0,0,0-5.51,5.657l-1.126,6.422-2.307-2.1a44.141,44.141,0,0,0-2.726,4.282c-0.169.306-.319,0.609-0.477,0.913L66.8,46.562H99.411C104.965,29.935,106.67,10.687,106.67,10.687Z"/>
    <path class="cls-2" d="M79.074,41.181l0.476,0.87,22.193-17.117,4.926-14.247s-8.44,4.426-13.562,7.864l-3.248,5.872L79.294,29.376a75.959,75.959,0,0,0-5.51,5.657l-1.979,2.492-1.455,1.832a44.141,44.141,0,0,0-2.726,4.282c-0.169.306-.319,0.609-0.477,0.913L66.8,46.562H73.82C75.482,44.679,77.25,42.877,79.074,41.181Z"/>
    <path class="cls-3" d="M99.411,46.562c5.554-16.626,7.259-35.875,7.259-35.875s-8.44,4.426-13.562,7.864l-3.248,5.872L79.771,30.245l-0.477-.87a75.959,75.959,0,0,0-5.51,5.657l-3.433,4.324a44.141,44.141,0,0,0-2.726,4.282c-0.169.306-.319,0.609-0.477,0.913L66.8,46.562"/>
  </g>
  <path class="cls-4" d="M71.806,103.812h0A46.334,46.334,0,0,1,28.127,72.939L19.056,47.312h105.5l-9.072,25.627A46.334,46.334,0,0,1,71.806,103.812Z"/>
  <line class="cls-5" x1="120.333" y1="99.062" x2="134.333" y2="99.062"/>
  <line class="cls-5" x1="132.833" y1="105.728" x2="143.333" y2="105.728"/>
  <line class="cls-5" x1="14.333" y1="99.062" y2="99.062"/>
  <line class="cls-5" x1="18" y1="105.728" x2="21.167" y2="105.728"/>
  <line class="cls-5" x1="26.333" y1="103.812" x2="28.833" y2="103.812"/>
  <line class="cls-5" x1="24.667" y1="96.728" x2="26.333" y2="96.728"/>
  <path class="cls-5" d="M47.167,30.312V11.52"/>
  <line class="cls-5" x1="56.167" y1="36.312" x2="56.167" y2="24.495"/>
  <line class="cls-5" x1="30.917" y1="24.812" x2="30.917"/>
  <line class="cls-5" x1="23.167" y1="24.062" x2="23.167" y2="34.668"/>
</svg>
