<svg id="Layer_1" data-name="Layer 1" xmlns="http://www.w3.org/2000/svg" viewBox="0 0 71.253 58.934">
  <defs>
    <style>
      .cls-1 {
        fill: #92cf5e;
      }

      .cls-2 {
        fill: none;
        stroke: #282828;
        stroke-linecap: round;
        stroke-miterlimit: 10;
        stroke-width: 3px;
      }

      .cls-3 {
        fill: #598945;
      }
    </style>
  </defs>
  <title>6e3182e8-225b-462d-a0e3-57ffe2b1985b</title>
  <path class="cls-1" d="M4.789,43.071A6.8,6.8,0,0,0,8.9,46.121l0.15,0.04a4.109,4.109,0,0,1,2.992,2.985,4.012,4.012,0,0,1,.072,1.443,1.7,1.7,0,0,0,.659,1.629l0.078,0.057A6.02,6.02,0,0,0,16.4,53.421H16.41a4,4,0,0,1,3.06,1.423,5.313,5.313,0,0,0,2.753,1.781,27.254,27.254,0,0,0,6.6.81h13.6a27.254,27.254,0,0,0,6.6-.81,5.313,5.313,0,0,0,2.753-1.781,4,4,0,0,1,3.06-1.423h0.015A6.02,6.02,0,0,0,58.4,52.274l0.078-.057a1.7,1.7,0,0,0,.659-1.629,4.012,4.012,0,0,1,.072-1.443A4.109,4.109,0,0,1,62.2,46.16l0.15-.04a6.8,6.8,0,0,0,4.113-3.049H4.789Z"/>
  <path class="cls-2" d="M26.6,30.7c0-4.864,6-4.864,6-9.729s-6-4.868-6-9.736,6-4.868,6-9.736"/>
  <path class="cls-2" d="M40.363,30.7c0-4.864,6-4.864,6-9.729s-6-4.868-6-9.736,6-4.868,6-9.736"/>
  <g>
    <path class="cls-3" d="M59.618,43.071a3.972,3.972,0,0,0-2.419,4.2A1.7,1.7,0,0,1,56.54,48.9l-0.078.057A6.02,6.02,0,0,1,52.92,50.1H52.905a4,4,0,0,0-3.06,1.423A5.313,5.313,0,0,1,47.092,53.3a27.254,27.254,0,0,1-6.6.81h-13.6a27.254,27.254,0,0,1-6.6-.81,5.313,5.313,0,0,1-2.753-1.781,4,4,0,0,0-3.06-1.423H14.458a5.993,5.993,0,0,1-2.335-.47,3.975,3.975,0,0,1-.007.959,1.7,1.7,0,0,0,.659,1.629l0.078,0.057A6.02,6.02,0,0,0,16.4,53.421H16.41a4,4,0,0,1,3.06,1.423,5.313,5.313,0,0,0,2.753,1.781,27.254,27.254,0,0,0,6.6.81h13.6a27.254,27.254,0,0,0,6.6-.81,5.313,5.313,0,0,0,2.753-1.781,4,4,0,0,1,3.06-1.423h0.015A6.02,6.02,0,0,0,58.4,52.274l0.078-.057a1.7,1.7,0,0,0,.659-1.629,4.012,4.012,0,0,1,.072-1.443A4.109,4.109,0,0,1,62.2,46.16l0.15-.04a6.8,6.8,0,0,0,4.113-3.049H59.618Z"/>
    <path class="cls-3" d="M10.106,45.824A4.048,4.048,0,0,0,7.76,43.071H4.789A6.8,6.8,0,0,0,8.9,46.121l0.15,0.04a4.322,4.322,0,0,1,1.157.5A4.064,4.064,0,0,0,10.106,45.824Z"/>
  </g>
  <path class="cls-2" d="M1.5,30.109V30.15a7.054,7.054,0,0,0,2.186,5.02,4.01,4.01,0,0,1,.824,4.6,3.077,3.077,0,0,0-.039,2.734q0.065,0.127.131,0.254a6.774,6.774,0,0,0,4.3,3.362l0.15,0.04a4.109,4.109,0,0,1,2.992,2.985,4.012,4.012,0,0,1,.072,1.443,1.7,1.7,0,0,0,.659,1.629l0.078,0.057A6.019,6.019,0,0,0,16.4,53.421H16.41a4,4,0,0,1,3.06,1.423,5.313,5.313,0,0,0,2.753,1.781,27.255,27.255,0,0,0,6.6.81h13.6a27.255,27.255,0,0,0,6.6-.81,5.313,5.313,0,0,0,2.753-1.781,4,4,0,0,1,3.06-1.423h0.015A6.019,6.019,0,0,0,58.4,52.274l0.078-.057a1.7,1.7,0,0,0,.659-1.629,4.012,4.012,0,0,1,.072-1.443A4.109,4.109,0,0,1,62.2,46.16l0.15-.04a6.774,6.774,0,0,0,4.3-3.362q0.066-.126.131-0.254a3.077,3.077,0,0,0-.039-2.734,4.01,4.01,0,0,1,.824-4.6,7.054,7.054,0,0,0,2.186-5.02V30.109"/>
</svg>
