<svg id="Layer_1" data-name="Layer 1" xmlns="http://www.w3.org/2000/svg" viewBox="0 0 222.802 204.343">
  <defs>
    <style>
      .cls-1, .cls-2, .cls-4, .cls-6, .cls-7, .cls-9 {
        fill: none;
      }

      .cls-1, .cls-2, .cls-3, .cls-4, .cls-5, .cls-6, .cls-7, .cls-8, .cls-9 {
        stroke: #3d3e40;
        stroke-miterlimit: 10;
      }

      .cls-1, .cls-8, .cls-9 {
        stroke-width: 2px;
      }

      .cls-2, .cls-3 {
        stroke-width: 4px;
      }

      .cls-3, .cls-5, .cls-8 {
        fill: #fff;
      }

      .cls-3, .cls-7, .cls-9 {
        stroke-linecap: round;
      }

      .cls-5, .cls-6, .cls-7 {
        stroke-width: 3px;
      }
    </style>
  </defs>
  <title>5418b19e-7410-44c9-8cd2-0b6dc9bc89c8</title>
  <path class="cls-1" d="M132.551,99.831V39.98s1.28-1.7-.221-2.5c0,0,4.584-12.586-2.554-14.2"/>
  <g>
    <path class="cls-2" d="M94.89,69.1"/>
    <path class="cls-3" d="M130.977,115.03v57.442a3.921,3.921,0,0,1-3.921,3.921H5.921A3.921,3.921,0,0,1,2,172.472V51.338c0-2.166,1.756-3.921,5.421-3.921H51.464"/>
    <line class="cls-4" x1="66.489" y1="99.78" x2="66.489" y2="176.015"/>
    <path class="cls-4" d="M66.489,176.015"/>
    <line class="cls-4" x1="2.378" y1="111.905" x2="82.648" y2="111.905"/>
    <path class="cls-4" d="M65.754,111.819s-15.65-10.08-15.9-19.477"/>
    <path class="cls-4" d="M77.771,89.894"/>
    <path class="cls-4" d="M74.82,106.006a94.978,94.978,0,0,1-8.148,5.812,75.1,75.1,0,0,1,2.415-9.294"/>
    <path class="cls-4" d="M65.754,111.819s-8.973,16.009-14.29,14.772"/>
    <path class="cls-4" d="M66.672,111.819s25.842,5.746,21.514,13.041S66.672,111.819,66.672,111.819Z"/>
  </g>
  <g>
    <path class="cls-5" d="M68.441,101.694a58.4,58.4,0,1,1,76.3,4.569,58.888,58.888,0,0,1-76.3-4.569"/>
    <path class="cls-6" d="M177.051,113.847h20.34a0,0,0,0,1,0,0v88.046a7.75,7.75,0,0,1-7.75,7.75H184.8a7.75,7.75,0,0,1-7.75-7.75V113.847a0,0,0,0,1,0,0Z" transform="translate(-59.761 147.149) rotate(-37.442)"/>
    <line class="cls-6" x1="144.738" y1="106.264" x2="158.101" y2="123.715"/>
    <line class="cls-6" x1="202.084" y1="197.882" x2="218.233" y2="185.516"/>
  </g>
  <path class="cls-7" d="M67.186,77.751A34.579,34.579,0,0,1,68.5,44.907"/>
  <path class="cls-7" d="M76.155,89.131a34.63,34.63,0,0,1-5.379-5.6"/>
  <path class="cls-8" d="M137.083,61.778H91.508s-0.8,16.041,3.559,20.536,7.119,5.817,7.119,5.817v1.763H126.4V88.131s2.759-1.322,7.119-5.817S137.083,61.778,137.083,61.778Z"/>
  <g>
    <path class="cls-8" d="M91.731,40.446h-3.5s-14.952,15.839-6.4,21.964c3.225,2.429,1.759,5.6.053,5.7H98.074c-1.706-.106-3.172-3.273.053-5.7C106.683,56.285,91.731,40.446,91.731,40.446Z"/>
    <rect class="cls-8" x="112.105" y="50.608" width="9.149" height="17.849"/>
    <rect class="cls-1" x="113.291" y="47.155" width="6.776" height="3.072"/>
    <path class="cls-9" d="M120.793,47.155H112.1s-7.059-14.96-4.048-17.26"/>
    <path class="cls-1" d="M113.289,47.155"/>
    <path class="cls-9" d="M110.229,29.9"/>
    <path class="cls-9" d="M113.289,29.9c-0.938.413,1.481,17.26,1.481,17.26"/>
    <path class="cls-1" d="M115.609,47.155"/>
    <path class="cls-9" d="M115.609,29.9"/>
    <path class="cls-1" d="M118.586,47.155"/>
    <path class="cls-9" d="M120.067,29.9"/>
    <path class="cls-9" d="M112.264,47.155h8.688S128.012,32.2,125,29.9"/>
    <path class="cls-9" d="M119.768,29.9c0.938,0.413-1.481,17.26-1.481,17.26"/>
  </g>
</svg>
