<svg id="Layer_1" data-name="Layer 1" xmlns="http://www.w3.org/2000/svg" viewBox="0 0 203.912 155.689">
  <defs>
    <style>
      .cls-1, .cls-3, .cls-5, .cls-7, .cls-8, .cls-9 {
        fill: none;
      }

      .cls-1, .cls-2, .cls-3, .cls-4, .cls-5, .cls-6, .cls-7, .cls-8, .cls-9 {
        stroke: #3d3e40;
        stroke-miterlimit: 10;
      }

      .cls-1, .cls-2 {
        stroke-width: 4px;
      }

      .cls-2, .cls-4, .cls-6 {
        fill: #fff;
      }

      .cls-2, .cls-8, .cls-9 {
        stroke-linecap: round;
      }

      .cls-4, .cls-5, .cls-9 {
        stroke-width: 3px;
      }

      .cls-6, .cls-7, .cls-8 {
        stroke-width: 2px;
      }
    </style>
  </defs>
  <title>9cc68390-3dd8-46d2-81d5-2e0c821683e8</title>
  <g>
    <path class="cls-1" d="M94.89,44.08"/>
    <path class="cls-2" d="M130.977,89.007v58.442a3.921,3.921,0,0,1-3.921,3.921H5.921A3.921,3.921,0,0,1,2,147.449V26.315a3.921,3.921,0,0,1,3.921-3.921H79.357"/>
    <line class="cls-3" x1="66.489" y1="22.771" x2="66.489" y2="150.992"/>
    <line class="cls-3" x1="66.489" y1="22.771" x2="66.489" y2="150.992"/>
    <line class="cls-3" x1="2.378" y1="86.882" x2="97.92" y2="86.882"/>
    <path class="cls-3" d="M65.754,86.8s-15.65-10.08-15.9-19.477"/>
    <path class="cls-3" d="M82.605,73.18C78.282,79.574,66.672,86.8,66.672,86.8s3.569-19.9,11.1-21.925"/>
    <path class="cls-3" d="M64.941,87.72S56.78,102.8,51.464,101.568"/>
    <path class="cls-3" d="M66.672,86.8s25.842,5.746,21.514,13.041S66.672,86.8,66.672,86.8Z"/>
  </g>
  <g>
    <circle class="cls-4" cx="117.754" cy="46.002" r="44.5" transform="translate(-3.706 81.069) rotate(-37.442)"/>
    <path class="cls-5" d="M169.433,87.112h15.5a0,0,0,0,1,0,0v65.25a7.75,7.75,0,0,1-7.75,7.75h0a7.75,7.75,0,0,1-7.75-7.75V87.112A0,0,0,0,1,169.433,87.112Z" transform="translate(-38.646 133.189) rotate(-37.442)"/>
    <line class="cls-5" x1="144.809" y1="81.334" x2="154.992" y2="94.633"/>
    <line class="cls-5" x1="188.509" y1="151.151" x2="200.815" y2="141.727"/>
  </g>
  <g>
    <path class="cls-6" d="M106.214,35.287h-3.5s-14.952,15.839-6.4,21.964c3.225,2.429,1.759,5.6.053,5.7h16.187c-1.706-.106-3.172-3.273.053-5.7C121.167,51.126,106.214,35.287,106.214,35.287Z"/>
    <rect class="cls-6" x="126.588" y="45.449" width="9.149" height="17.849"/>
    <rect class="cls-7" x="127.775" y="41.996" width="6.776" height="3.072"/>
    <path class="cls-8" d="M135.276,42h-8.688s-7.059-14.96-4.048-17.26"/>
    <path class="cls-7" d="M127.773,42"/>
    <path class="cls-8" d="M124.712,24.736"/>
    <path class="cls-8" d="M127.773,24.736c-0.938.413,1.481,17.26,1.481,17.26"/>
    <path class="cls-7" d="M130.093,42"/>
    <path class="cls-8" d="M130.093,24.736"/>
    <path class="cls-7" d="M133.069,42"/>
    <path class="cls-8" d="M134.55,24.736"/>
    <path class="cls-8" d="M126.748,42h8.688s7.059-14.96,4.048-17.26"/>
    <path class="cls-8" d="M134.251,24.736C135.189,25.149,132.77,42,132.77,42"/>
  </g>
  <path class="cls-9" d="M86.758,61.209a34.579,34.579,0,0,1,1.312-32.844"/>
  <path class="cls-9" d="M95.727,72.589a34.63,34.63,0,0,1-5.379-5.6"/>
</svg>
