<svg id="Layer_1" data-name="Layer 1" xmlns="http://www.w3.org/2000/svg" viewBox="0 0 135.606 130.923">
  <defs>
    <style>
      .cls-1 {
        fill: #92cf5e;
      }

      .cls-2 {
        fill: #598945;
      }

      .cls-3, .cls-4 {
        fill: none;
        stroke: #282828;
        stroke-miterlimit: 10;
        stroke-width: 3px;
      }

      .cls-3 {
        stroke-linecap: round;
      }

      .cls-4 {
        stroke-dasharray: 7 4;
      }
    </style>
  </defs>
  <title>d3fa0380-cfb3-4b41-93ed-c88676b07cb9</title>
  <g>
    <path class="cls-1" d="M66.463,2.748s-3.2,4.911-7.1,12.518v9.3L55.9,22.378c-1.68,3.665-3.359,7.678-4.871,11.888V38.4l-1.161-.735A105.221,105.221,0,0,0,46.98,48.222l2,5.815h38C83.438,28.8,66.463,2.748,66.463,2.748Z"/>
    <path class="cls-1" d="M87.643,62.793a63.035,63.035,0,0,0-.656-8.756h-38l0.94,2.73-4.206-1a61.171,61.171,0,0,0-.434,7.023c0,0.484.021,0.952,0.034,1.427"/>
    <path class="cls-2" d="M54.634,62.689c0.629-2.917,1.409-5.811,2.287-8.652H48.983l0.94,2.73-4.206-1a61.171,61.171,0,0,0-.434,7.023c0,0.484.021,0.952,0.034,1.427"/>
    <path class="cls-2" d="M57.522,52.131l1.161,0.735V48.733c1.512-4.211,3.192-8.223,4.871-11.888l3.459,2.189v-9.3c3.907-7.606,7.1-12.518,7.1-12.518s0.808,1.242,2.1,3.426A165.677,165.677,0,0,0,66.463,2.748s-3.2,4.911-7.1,12.518v9.3L55.9,22.378c-1.68,3.665-3.359,7.678-4.871,11.888V38.4l-1.161-.735A105.221,105.221,0,0,0,46.98,48.222l2,5.815h7.938C57.118,53.4,57.315,52.762,57.522,52.131Z"/>
    <path class="cls-3" d="M87.643,62.793c0-27.557-21.18-60.045-21.18-60.045s-3.2,4.912-7.1,12.518v9.3L55.9,22.378c-1.68,3.665-3.359,7.677-4.871,11.888V38.4l-1.161-.735A105.224,105.224,0,0,0,46.98,48.222l2.943,8.544-4.206-1a61.176,61.176,0,0,0-.434,7.023c0,0.484.021,0.952,0.034,1.427"/>
  </g>
  <line class="cls-4" y1="64.22" x2="135.606" y2="64.22"/>
  <path class="cls-3" d="M45.626,64.22c0,8.165,2.272,15.551,5.938,20.87a22.774,22.774,0,0,0,4.653,5.033L49.322,96.89"/>
  <path class="cls-3" d="M85.591,64.22a40.268,40.268,0,0,1-2.612,14.513A27.692,27.692,0,0,1,76.3,89.011l7.443,7.879"/>
  <path class="cls-3" d="M65.609,34.881"/>
  <circle class="cls-1" cx="56.921" cy="73.153" r="2.38"/>
  <circle class="cls-1" cx="72.013" cy="78.935" r="3.401"/>
  <circle class="cls-1" cx="63.546" cy="83.982" r="4.245"/>
  <circle class="cls-1" cx="66.752" cy="105.293" r="3.205"/>
  <circle class="cls-1" cx="56.924" cy="102.911" r="2.382"/>
  <circle class="cls-1" cx="76.529" cy="105.455" r="1.115"/>
  <circle class="cls-1" cx="68.023" cy="115.776" r="1.04"/>
  <circle class="cls-1" cx="58.216" cy="118.721" r="0.347"/>
  <circle class="cls-1" cx="51.094" cy="118.548" r="0.173"/>
  <circle class="cls-1" cx="47.494" cy="113.69" r="0.513"/>
  <circle class="cls-1" cx="55.444" cy="124.439"/>
  <circle class="cls-1" cx="67.127" cy="125.103" r="0.664"/>
  <circle class="cls-1" cx="69.51" cy="122.287" r="0.447"/>
  <circle class="cls-1" cx="75.815" cy="116.176" r="0.401"/>
  <circle class="cls-1" cx="80.567" cy="121.493" r="0.866"/>
  <circle class="cls-1" cx="71.525" cy="129.258" r="0.488"/>
  <circle class="cls-1" cx="58.759" cy="126.309" r="0.543"/>
  <circle class="cls-1" cx="53.953" cy="130.334" r="0.588"/>
  <circle class="cls-1" cx="47.237" cy="120.884" r="0.257"/>
  <circle class="cls-1" cx="85.814" cy="108.103" r="2.648"/>
  <circle class="cls-1" cx="63.199" cy="119.283" r="1.601"/>
  <circle class="cls-1" cx="90.671" cy="128.825" r="0.921"/>
  <circle class="cls-1" cx="36.688" cy="110.188" r="1.689"/>
</svg>
