<svg id="Layer_1" data-name="Layer 1" xmlns="http://www.w3.org/2000/svg" viewBox="0 0 33.56 92.82">
  <defs>
    <style>
      .cls-1 {
        fill: #92cf5e;
      }

      .cls-2 {
        fill: #598945;
      }

      .cls-3 {
        fill: none;
        stroke: #282828;
        stroke-linecap: round;
        stroke-miterlimit: 10;
        stroke-width: 3px;
      }
    </style>
  </defs>
  <title>a38ddf52-c143-485f-9d49-329fbbb80ab6</title>
  <path class="cls-1" d="M12.951,60.109l3.483,4.941L29.4,59.582a34.522,34.522,0,0,0,2.66-13.514c0-19.881-15.28-43.319-15.28-43.319s-2.306,3.543-5.125,9.031v6.71L9.16,16.91c-1.212,2.644-2.423,5.539-3.514,8.577v2.981l-0.838-.53a75.914,75.914,0,0,0-2.083,7.617L4.847,41.72,1.813,41A44.135,44.135,0,0,0,1.5,46.068c0,0.349.015,0.687,0.025,1.03l2.51,7.287-1.662-.394a33.307,33.307,0,0,0,4.1,10.088l6.482-3.97h0Z"/>
  <rect class="cls-1" x="8.299" y="69.253" width="4.027" height="4.027" transform="translate(16.695 -0.459) rotate(13.319)"/>
  <rect class="cls-1" x="16.811" y="72.364" width="4.393" height="4.393" transform="translate(-13.551 4.843) rotate(-10.731)"/>
  <rect class="cls-1" x="8.299" y="81.699" width="4.027" height="4.027" transform="translate(18.371 -0.247) rotate(12.506)"/>
  <rect class="cls-1" x="20.838" y="89.478" width="2.929" height="2.929" transform="translate(32.516 -2.136) rotate(20.041)"/>
  <path class="cls-2" d="M7.046,57.534c-0.009-.342-0.025-0.68-0.025-1.03a44.135,44.135,0,0,1,.313-5.067l3.034,0.719L8.246,45.993a75.914,75.914,0,0,1,2.083-7.617l0.838,0.53V35.924c1.091-3.038,2.3-5.933,3.514-8.577l2.5,1.579v-6.71C20,16.729,22.3,13.185,22.3,13.185s0.583,0.9,1.514,2.471A119.517,119.517,0,0,0,16.78,2.748s-2.306,3.543-5.125,9.031v6.71L9.16,16.91c-1.212,2.644-2.423,5.539-3.514,8.577v2.981l-0.838-.53a75.914,75.914,0,0,0-2.083,7.617L4.847,41.72,1.813,41A44.135,44.135,0,0,0,1.5,46.068c0,0.349.015,0.687,0.025,1.03l2.51,7.287-1.662-.394a33.307,33.307,0,0,0,4.1,10.088l2.338-1.432Z"/>
  <path class="cls-3" d="M12.951,60.109l3.483,4.941L29.4,59.582a34.522,34.522,0,0,0,2.66-13.514c0-19.881-15.28-43.319-15.28-43.319s-2.306,3.543-5.125,9.031v6.71L9.16,16.91c-1.212,2.644-2.423,5.539-3.514,8.577v2.981l-0.838-.53a75.914,75.914,0,0,0-2.083,7.617L4.847,41.72,1.813,41A44.135,44.135,0,0,0,1.5,46.068c0,0.349.015,0.687,0.025,1.03l2.51,7.287-1.662-.394a33.307,33.307,0,0,0,4.1,10.088l6.482-3.97h0Z"/>
</svg>
