<svg id="Layer_1" data-name="Layer 1" xmlns="http://www.w3.org/2000/svg" viewBox="0 0 143.165 93.576">
  <defs>
    <style>
      .cls-1 {
        fill: #92cf5e;
      }

      .cls-2 {
        fill: #598945;
      }

      .cls-10, .cls-11, .cls-3, .cls-8, .cls-9 {
        fill: none;
      }

      .cls-3 {
        stroke: #282828;
        stroke-linecap: round;
        stroke-width: 3px;
      }

      .cls-10, .cls-11, .cls-3, .cls-9 {
        stroke-miterlimit: 10;
      }

      .cls-4 {
        fill: #55b883;
      }

      .cls-5 {
        fill: #72c8c0;
      }

      .cls-6 {
        fill: #cbca0a;
      }

      .cls-7 {
        fill: #e0f117;
      }

      .cls-9 {
        stroke: #598945;
      }

      .cls-10 {
        stroke: #92cf5e;
      }

      .cls-11 {
        stroke: #72c8c0;
      }
    </style>
  </defs>
  <title>1176210d-7848-4915-910e-38e39ce9740c</title>
  <g>
    <path class="cls-1" d="M43.083,71.8l2.67-2.67,5.3-13.035A34.522,34.522,0,0,0,43.38,44.663C29.322,30.6,1.944,24.836,1.944,24.836s0.875,4.136,2.762,10.01l4.745,4.745-2.881.648c1.013,2.726,2.2,5.63,3.58,8.55L12.257,50.9l-0.967.217A75.914,75.914,0,0,0,15.2,57.973l5.86,2.858-2.654,1.637a44.135,44.135,0,0,0,3.361,3.8c0.247,0.247.5,0.475,0.745,0.711l6.928,3.378-1.454.9c3.428,2.165,12.437-.733,15.609.03L39.8,68.1Z" transform="translate(0)"/>
    <path class="cls-2" d="M33.8,70.459c-0.249-.236-0.5-0.464-0.745-0.711a44.135,44.135,0,0,1-3.361-3.8l2.654-1.637-5.86-2.858a75.914,75.914,0,0,1-3.913-6.859l0.967-.217-2.108-2.108c-1.377-2.92-2.567-5.823-3.58-8.55l2.881-.648-4.745-4.745c-1.887-5.873-2.762-10.01-2.762-10.01s1.046,0.222,2.818.677a119.517,119.517,0,0,0-14.1-4.152s0.875,4.136,2.762,10.01l4.745,4.745-2.881.648c1.013,2.726,2.2,5.63,3.58,8.55L12.257,50.9l-0.967.217A75.914,75.914,0,0,0,15.2,57.973l5.86,2.858-2.654,1.637a44.135,44.135,0,0,0,3.361,3.8c0.247,0.247.5,0.475,0.745,0.711l6.928,3.378-1.454.9c3.428,2.165,11.869-1.538,15.041-.774l-4.37,2.345Z" transform="translate(0)"/>
    <path class="cls-3" d="M41.714,73.174l4.039-4.039,5.3-13.035A34.522,34.522,0,0,0,43.38,44.663C29.322,30.6,1.944,24.836,1.944,24.836s0.875,4.136,2.762,10.01l4.745,4.745-2.881.648c1.013,2.726,2.2,5.63,3.58,8.55L12.257,50.9l-0.967.217A75.914,75.914,0,0,0,15.2,57.973l5.86,2.858-2.654,1.637a44.135,44.135,0,0,0,3.361,3.8c0.247,0.247.5,0.475,0.745,0.711l6.928,3.378-1.454.9c3.428,2.165,11.921-.217,15.093.547L60.109,88.831Z" transform="translate(0)"/>
  </g>
  <g>
    <path class="cls-4" d="M56.748,64.988l3.739-.527,12.076-7.225a34.522,34.522,0,0,0,.747-13.753C70.534,23.8,52.131,2.721,52.131,2.721s-1.789,3.831-3.814,9.658l0.937,6.645-2.691-1.215c-0.831,2.787-1.626,5.823-2.283,8.983L44.7,29.744l-0.9-.408a75.914,75.914,0,0,0-1,7.834l2.963,5.807-3.1-.288a44.135,44.135,0,0,0,.4,5.061c0.049,0.346.111,0.678,0.168,1.016l3.5,6.866-1.7-.158c1.437,3.791,10.377,6.894,12.452,9.412l-1.123-4.831Z" transform="translate(0)"/>
    <path class="cls-5" d="M50.142,58.33c-0.057-.338-0.119-0.67-0.168-1.016a44.135,44.135,0,0,1-.4-5.061l3.1,0.288-2.963-5.807a75.914,75.914,0,0,1,1-7.834l0.9,0.408L51.2,36.356c0.656-3.16,1.452-6.2,2.283-8.983l2.691,1.215-0.937-6.645c2.025-5.827,3.814-9.658,3.814-9.658s0.7,0.806,1.845,2.236a119.517,119.517,0,0,0-8.77-11.8s-1.789,3.831-3.814,9.658l0.937,6.645-2.691-1.215c-0.831,2.787-1.626,5.823-2.283,8.983L44.7,29.744l-0.9-.408a75.914,75.914,0,0,0-1,7.834l2.963,5.807-3.1-.288a44.135,44.135,0,0,0,.4,5.061c0.049,0.346.111,0.678,0.168,1.016l3.5,6.866-1.7-.158c1.437,3.791,10.407,5.91,12.482,8.428l-4.9-.755Z" transform="translate(0)"/>
    <path class="cls-3" d="M54.83,65.258l5.656-.8,12.076-7.225a34.522,34.522,0,0,0,.747-13.753C70.534,23.8,52.131,2.721,52.131,2.721s-1.789,3.831-3.814,9.658l0.937,6.645-2.691-1.215c-0.831,2.787-1.626,5.823-2.283,8.983L44.7,29.744l-0.9-.408a75.914,75.914,0,0,0-1,7.834l2.963,5.807-3.1-.288a44.135,44.135,0,0,0,.4,5.061c0.049,0.346.111,0.678,0.168,1.016l3.5,6.866-1.7-.158c1.437,3.791,9.654,7,11.729,9.514l3.362,23.843Z" transform="translate(0)"/>
  </g>
  <g>
    <path class="cls-6" d="M71.764,67.761l3.3,1.828L89.061,71.08A34.522,34.522,0,0,0,97.93,60.541c9.623-17.4,12.3-47.744,12.3-47.744s-8.44,4.426-13.562,7.864l-3.248,5.872-4.377-5.485c-2.34,1.727-1.843,6.57-4.269,8.7l-1.443,2.609-0.476-.87a75.914,75.914,0,0,0-5.51,5.657l-1.126,6.422-2.307-2.1a44.135,44.135,0,0,0-2.726,4.282c-0.169.306-.319,0.609-0.477,0.913L69.38,54.254l-1.264-1.149C66.984,57,72.26,64.854,72.4,68.114Z" transform="translate(0)"/>
    <path class="cls-7" d="M70.491,58.468c0.158-.3.308-0.607,0.477-0.913a44.135,44.135,0,0,1,2.726-4.282L76,55.371l1.126-6.422a75.914,75.914,0,0,1,5.51-5.657l0.476,0.87,1.443-2.609c2.425-2.13,4.211.659,6.551-1.068l4.438-5.375,0.905-2.643c5.123-3.438,8.856-5.422,8.856-5.422s0.076,1.066.129,2.9c0.544-8.438,4.8-17.143,4.8-17.143s-8.44,4.426-13.562,7.864l-3.248,5.872-4.377-5.485c-2.34,1.727-1.843,6.57-4.269,8.7l-1.443,2.609-0.476-.87a75.914,75.914,0,0,0-5.51,5.657l-1.126,6.422-2.307-2.1a44.135,44.135,0,0,0-2.726,4.282c-0.169.306-.319,0.609-0.477,0.913L69.38,54.254l-1.264-1.149c-1.132,3.893,4.76,10.981,4.9,14.24l-3.462-3.551Z" transform="translate(0)"/>
    <path class="cls-3" d="M70.07,66.823l5,2.765L89.061,71.08A34.522,34.522,0,0,0,97.93,60.541c9.623-17.4,12.3-47.744,12.3-47.744s-8.44,4.426-13.562,7.864l-3.248,5.872-4.377-5.485c-2.34,1.727-1.843,6.57-4.269,8.7l-1.443,2.609-0.476-.87a75.914,75.914,0,0,0-5.51,5.657l-3.433,4.324a44.135,44.135,0,0,0-2.726,4.282c-0.169.306-.319,0.609-0.477,0.913L69.38,54.254l-1.264-1.149c-1.132,3.893,3.5,11.4,3.648,14.656L60.109,88.831Z" transform="translate(0)"/>
  </g>
  <g>
    <path class="cls-1" d="M82.093,79.008l1.54,3.447,10.282,9.608a34.522,34.522,0,0,0,13.424-3.085c18.151-8.111,33.317-31.624,33.317-31.624s-4.176-.66-10.336-0.995L124.193,59.1l0.424-2.923c-2.908-.028-6.046.047-9.264,0.29l-2.722,1.216,0.142-.981a75.914,75.914,0,0,0-7.8,1.206l-4.762,4.453-0.582-3.063a44.135,44.135,0,0,0-4.753,1.781c-0.319.142-.621,0.294-0.93,0.443l-5.63,5.265-0.319-1.678c-3.246,2.429-3.756,11.879-5.6,14.569l4.332-2.415Z" transform="translate(0)"/>
    <path class="cls-2" d="M86.666,70.818c0.309-.148.611-0.3,0.93-0.443a44.135,44.135,0,0,1,4.753-1.781l0.582,3.063L97.692,67.2A75.914,75.914,0,0,1,105.5,66l-0.142.981,2.722-1.216c3.219-.243,6.356-0.318,9.264-0.29L116.917,68.4l6.126-2.738c6.16,0.335,10.336.995,10.336,0.995s-0.58.9-1.639,2.391a119.517,119.517,0,0,0,8.915-11.69s-4.176-.66-10.336-0.995L124.193,59.1l0.424-2.923c-2.908-.028-6.046.047-9.264,0.29l-2.722,1.216,0.142-.981a75.914,75.914,0,0,0-7.8,1.206l-4.762,4.453-0.582-3.063a44.135,44.135,0,0,0-4.753,1.781c-0.319.142-.621,0.294-0.93,0.443l-5.63,5.265-0.319-1.678c-3.246,2.429-2.8,11.635-4.648,14.326l-0.63-4.919Z" transform="translate(0)"/>
    <path class="cls-3" d="M81.3,77.24l2.33,5.215,10.282,9.608a34.522,34.522,0,0,0,13.424-3.085c18.151-8.111,33.317-31.624,33.317-31.624s-4.176-.66-10.336-0.995L124.193,59.1l0.424-2.923c-2.908-.028-6.046.047-9.264,0.29l-2.722,1.216,0.142-.981a75.914,75.914,0,0,0-7.8,1.206l-4.762,4.453-0.582-3.063a44.135,44.135,0,0,0-4.753,1.781c-0.319.142-.621,0.294-0.93,0.443l-5.63,5.265-0.319-1.678c-3.246,2.429-4.054,11.212-5.9,13.9L60.109,88.831Z" transform="translate(0)"/>
  </g>
  <circle class="cls-7" cx="93.525" cy="43.089" r="2.25"/>
  <circle class="cls-7" cx="99.025" cy="34.839" r="1.358"/>
  <circle class="cls-7" cx="80.441" cy="47.255" r="0.5"/>
  <circle class="cls-7" cx="82.093" cy="40.839" r="0.622"/>
  <circle class="cls-7" cx="79.941" cy="55.505" r="1"/>
  <circle class="cls-7" cx="89.095" cy="53.839" r="1.263"/>
  <circle class="cls-7" cx="95.191" cy="49.922" r="1.083"/>
  <path class="cls-8" d="M97.228,72.328c-0.3.069-.253,0.532-0.035,0.743a3.006,3.006,0,0,1,.681.593,0.816,0.816,0,0,1-.211.929,2.389,2.389,0,0,1-.9.476" transform="translate(0)"/>
  <path class="cls-9" d="M99.023,82.048a13.639,13.639,0,0,1,2.617-1.786,4.585,4.585,0,0,1,3.084-.411,2.791,2.791,0,0,1,2.09,2.15" transform="translate(0)"/>
  <path class="cls-9" d="M113.621,68.727a6.974,6.974,0,0,1-.034-1.859,2.1,2.1,0,0,1,2.5-1.911,6.971,6.971,0,0,1,1.6.452l2.559,0.947" transform="translate(0)"/>
  <path class="cls-9" d="M90.979,75.147a3.751,3.751,0,0,1,1.322-5.3,3.655,3.655,0,0,0,1.02-.652,0.768,0.768,0,0,0,.013-1.083" transform="translate(0)"/>
  <path class="cls-9" d="M111.89,74.148a1.886,1.886,0,0,1,2.495.845" transform="translate(0)"/>
  <path class="cls-10" d="M126.426,64.209a4.151,4.151,0,0,1-.7,1.485,2.861,2.861,0,0,0-.557,1.531,1.1,1.1,0,0,0,.985,1.117" transform="translate(0)"/>
  <path class="cls-10" d="M116.941,61.087a6.989,6.989,0,0,0-4.884,1.6,27.426,27.426,0,0,1-4.334,2.981,2.733,2.733,0,0,1-1.451.309,1.21,1.21,0,0,1-1.068-.909" transform="translate(0)"/>
  <path class="cls-10" d="M131.608,62.088a11.479,11.479,0,0,1,5.417.167" transform="translate(0)"/>
  <path class="cls-11" d="M50.236,34.364l2.454-1.34,1.886,3.225,2.745-4.242,0.845,2.414,1.88-.625" transform="translate(0)"/>
  <line class="cls-11" x1="59.608" y1="42.234" x2="55.92" y2="45.923"/>
  <path class="cls-11" d="M52.685,23.3a37.2,37.2,0,0,1,6.729,1.439A6.272,6.272,0,0,0,56.8,28.06l5.62-.356" transform="translate(0)"/>
  <path class="cls-11" d="M61.912,56.594l-5.156-3.426a3.618,3.618,0,0,0-2.432-.862A2.408,2.408,0,0,0,52.8,53.349a7.145,7.145,0,0,0-.8,1.714l-1.84-4.807" transform="translate(0)"/>
</svg>
